<svg height="480pt" viewBox="0 -9 480 479" width="480pt" xmlns="http://www.w3.org/2000/svg"><path d="m472 40.5v128c0 17.671875-14.328125 32-32 32h-24v-32c-.027344-8.824219-7.175781-15.972656-16-16h-320c-8.824219.027344-15.972656 7.175781-16 16v32h-24c-17.671875 0-32-14.328125-32-32v-128c0-17.671875 14.328125-32 32-32h400c17.671875 0 32 14.328125 32 32zm0 0" fill="#bddbff"/><g fill="#3d9ae2"><path d="m440 .5h-400c-22.082031.027344-39.9726562 17.917969-40 40v128c.0273438 22.082031 17.917969 39.972656 40 40h400c22.082031-.027344 39.972656-17.917969 40-40v-128c-.027344-22.082031-17.917969-39.972656-40-40zm-32 192h-336v-24c0-4.417969 3.582031-8 8-8h320c4.417969 0 8 3.582031 8 8zm56-24c0 13.253906-10.746094 24-24 24h-16v-24c0-13.253906-10.746094-24-24-24h-320c-13.253906 0-24 10.746094-24 24v24h-16c-13.253906 0-24-10.746094-24-24v-128c0-13.253906 10.746094-24 24-24h400c13.253906 0 24 10.746094 24 24zm0 0"/><path d="m282.34375 330.84375-21.65625 21.65625h-12.6875v-12.6875l21.65625-21.65625-11.3125-11.3125-18.34375 18.34375-18.34375-18.34375-11.3125 11.3125 21.65625 21.65625v12.6875h-12.6875l-21.65625-21.65625-11.3125 11.3125 18.34375 18.34375-18.34375 18.34375 11.3125 11.3125 21.65625-21.65625h12.6875v12.6875l-21.65625 21.65625 11.3125 11.3125 18.34375-18.34375 18.34375 18.34375 11.3125-11.3125-21.65625-21.65625v-12.6875h12.6875l21.65625 21.65625 11.3125-11.3125-18.34375-18.34375 18.34375-18.34375zm0 0"/><path d="m458.34375 378.84375-21.65625 21.65625h-12.6875v-12.6875l21.65625-21.65625-11.3125-11.3125-18.34375 18.34375-18.34375-18.34375-11.3125 11.3125 21.65625 21.65625v12.6875h-12.6875l-21.65625-21.65625-11.3125 11.3125 18.34375 18.34375-18.34375 18.34375 11.3125 11.3125 21.65625-21.65625h12.6875v12.6875l-21.65625 21.65625 11.3125 11.3125 18.34375-18.34375 18.34375 18.34375 11.3125-11.3125-21.65625-21.65625v-12.6875h12.6875l21.65625 21.65625 11.3125-11.3125-18.34375-18.34375 18.34375-18.34375zm0 0"/><path d="m106.34375 378.84375-21.65625 21.65625h-12.6875v-12.6875l21.65625-21.65625-11.3125-11.3125-18.34375 18.34375-18.34375-18.34375-11.3125 11.3125 21.65625 21.65625v12.6875h-12.6875l-21.65625-21.65625-11.3125 11.3125 18.34375 18.34375-18.34375 18.34375 11.3125 11.3125 21.65625-21.65625h12.6875v12.6875l-21.65625 21.65625 11.3125 11.3125 18.34375-18.34375 18.34375 18.34375 11.3125-11.3125-21.65625-21.65625v-12.6875h12.6875l21.65625 21.65625 11.3125-11.3125-18.34375-18.34375 18.34375-18.34375zm0 0"/><path d="m232 224.5h16v64h-16zm0 0"/><path d="m312 256.5h-16v40c0 2.121094.84375 4.15625 2.34375 5.65625l24 24 11.3125-11.3125-21.65625-21.65625zm0 0"/><path d="m360 224.5v72c0 2.121094.84375 4.15625 2.34375 5.65625l40 40 11.3125-11.3125-37.65625-37.65625v-68.6875zm0 0"/><path d="m296 224.5h16v16h-16zm0 0"/><path d="m168 293.1875-21.65625 21.65625 11.3125 11.3125 24-24c1.5-1.5 2.34375-3.535156 2.34375-5.65625v-40h-16zm0 0"/><path d="m104 293.1875-37.65625 37.65625 11.3125 11.3125 40-40c1.5-1.5 2.34375-3.535156 2.34375-5.65625v-72h-16zm0 0"/><path d="m168 224.5h16v16h-16zm0 0"/><path d="m336 48.5h80v16h-80zm0 0"/><path d="m304 48.5h16v16h-16zm0 0"/></g></svg>