<?xml version="1.0" standalone="no"?>
<!DOCTYPE svg PUBLIC "-//W3C//DTD SVG 20010904//EN"
 "http://www.w3.org/TR/2001/REC-SVG-20010904/DTD/svg10.dtd">
<svg version="1.0" xmlns="http://www.w3.org/2000/svg"
 width="131.000000pt" height="131.000000pt" viewBox="0 0 131.000000 131.000000"
 preserveAspectRatio="xMidYMid meet">
<metadata>
Created by potrace 1.11, written by Peter Selinger 2001-2013
</metadata>
<g transform="translate(0.000000,131.000000) scale(0.100000,-0.100000)"
fill="#000000" stroke="none">
<path d="M638 1282 c-30 -13 -531 -506 -543 -536 -24 -55 25 -126 86 -126 l27
0 -1 -180 c-1 -197 4 -220 55 -241 16 -7 73 -13 126 -13 l97 -1 2 -53 c1 -41
6 -57 24 -73 28 -24 60 -24 90 0 24 19 24 20 25 251 l0 233 31 26 c17 14 38
38 48 53 33 54 12 168 -38 203 -30 21 -37 10 -37 -60 0 -63 -1 -65 -36 -89
l-37 -25 -36 23 c-35 23 -36 25 -37 90 -1 36 -4 69 -7 72 -10 10 -46 -20 -66
-57 -40 -70 -17 -169 47 -213 27 -18 27 -19 28 -137 0 -99 -3 -120 -16 -123
-27 -7 -140 -6 -141 2 -1 4 -3 94 -4 201 -1 189 -2 194 -24 212 -13 11 -32 19
-43 19 -15 0 -5 15 43 62 35 33 130 126 211 204 81 79 152 145 158 146 6 2
103 -89 215 -202 l205 -205 -35 -6 c-65 -11 -65 -10 -65 -234 l0 -202 -102 0
c-57 -1 -111 -1 -120 -2 -13 -1 -17 -12 -17 -55 0 -33 5 -56 12 -58 7 -2 71
-3 142 -2 147 1 178 12 193 68 4 17 8 106 7 199 l-1 167 31 0 c68 0 120 58
104 115 -5 17 -49 72 -104 128 -52 54 -95 106 -96 115 0 9 -1 48 -1 85 0 76
-18 107 -62 107 -27 0 -56 -33 -56 -64 0 -14 -28 8 -104 82 -106 104 -126 115
-178 94z m-68 -1173 c0 -24 -23 -21 -28 4 -2 10 3 17 12 17 10 0 16 -9 16 -21z"/>
</g>
</svg>
